<?xml version="1.0" standalone="no"?>
<!DOCTYPE svg PUBLIC "-//W3C//DTD SVG 20010904//EN"
 "http://www.w3.org/TR/2001/REC-SVG-20010904/DTD/svg10.dtd">
<svg version="1.0" xmlns="http://www.w3.org/2000/svg"
 width="1000.000000pt" height="1000.000000pt" viewBox="0 0 1000.000000 1000.000000"
 preserveAspectRatio="xMidYMid meet">
<metadata>
Created by potrace 1.11, written by Peter Selinger 2001-2013
</metadata>
<g transform="translate(0.000000,1000.000000) scale(0.100000,-0.100000)"
fill="#000000" stroke="none">
<path d="M4738 9815 c-1 -1 -48 -6 -103 -10 -55 -4 -113 -8 -130 -10 -88 -9
-152 -17 -165 -20 -8 -2 -40 -7 -70 -10 -30 -4 -74 -11 -98 -16 -23 -5 -59
-12 -78 -15 -149 -23 -577 -137 -689 -183 -11 -5 -99 -39 -195 -77 -354 -139
-690 -322 -1010 -549 -118 -84 -304 -231 -374 -294 -165 -151 -242 -226 -351
-342 -145 -155 -280 -320 -399 -489 -88 -123 -196 -287 -196 -296 0 -3 -8 -18
-19 -32 -46 -66 -197 -357 -263 -506 -22 -50 -46 -104 -53 -121 -97 -218 -235
-679 -281 -945 -2 -14 -9 -47 -14 -75 -5 -27 -16 -99 -24 -160 -15 -106 -18
-136 -35 -338 -9 -95 -6 -655 3 -717 3 -19 8 -60 11 -90 18 -177 45 -346 81
-515 8 -38 16 -79 19 -90 6 -29 51 -199 74 -280 31 -108 115 -349 146 -420 7
-16 32 -75 55 -130 196 -463 538 -987 885 -1354 118 -125 303 -304 372 -361
10 -8 48 -40 84 -70 79 -66 125 -103 193 -152 28 -21 56 -41 61 -45 63 -51
314 -213 445 -286 171 -97 593 -297 626 -297 5 0 20 -6 34 -13 80 -42 596
-194 720 -213 19 -3 43 -7 52 -10 10 -3 28 -7 40 -9 13 -2 50 -8 83 -14 107
-18 167 -27 250 -37 33 -3 67 -8 76 -9 62 -12 275 -20 504 -19 310 0 432 9
720 49 40 6 202 36 265 50 36 8 79 17 95 20 17 3 71 17 120 30 50 14 99 27
110 30 109 26 464 153 595 212 30 14 73 32 95 41 22 8 45 19 51 23 6 5 64 36
130 69 120 60 138 70 274 149 82 48 291 186 356 235 23 17 52 38 64 46 12 8
30 22 40 30 21 17 48 38 99 78 341 267 713 675 975 1067 166 249 351 593 444
825 78 193 160 427 177 500 2 8 13 49 25 90 22 76 76 308 86 364 2 17 9 56 14
86 5 30 12 73 15 95 4 22 8 51 10 65 2 14 7 52 10 85 4 33 8 71 10 85 26 174
26 841 0 979 -1 9 -6 43 -9 76 -18 157 -52 353 -92 520 -9 39 -17 77 -19 85
-17 74 -56 204 -105 352 -55 167 -79 230 -120 323 -10 22 -33 74 -50 115 -31
72 -156 321 -203 405 -113 203 -378 586 -479 695 -13 14 -34 39 -46 55 -13 17
-59 68 -102 115 -490 535 -1054 933 -1715 1210 -144 60 -503 184 -565 195 -16
3 -41 10 -55 15 -14 5 -36 12 -48 14 -12 2 -73 16 -134 30 -96 22 -225 46
-323 61 -102 15 -184 26 -240 31 -36 3 -81 7 -100 10 -40 6 -636 14 -642 9z
m1959 -2321 c-3 -3 -12 -4 -19 -1 -8 3 -5 6 6 6 11 1 17 -2 13 -5z m-3619 -21
c-10 -2 -26 -2 -35 0 -10 3 -2 5 17 5 19 0 27 -2 18 -5z m325 0 c-7 -2 -21 -2
-30 0 -10 3 -4 5 12 5 17 0 24 -2 18 -5z m4608 -420 c13 -16 12 -17 -3 -4 -10
7 -18 15 -18 17 0 8 8 3 21 -13z m656 -1425 c-3 -8 -6 -5 -6 6 -1 11 2 17 5
13 3 -3 4 -12 1 -19z m0 -50 c-3 -7 -5 -2 -5 12 0 14 2 19 5 13 2 -7 2 -19 0
-25z m-1067 -2241 c0 -2 -19 -21 -42 -42 l-43 -40 40 43 c36 39 45 47 45 39z
m-100 -100 c0 -2 -17 -19 -37 -38 l-38 -34 34 38 c33 34 41 42 41 34z m-4914
-179 l29 -33 -32 29 c-31 28 -38 36 -30 36 2 0 16 -15 33 -32z m2391 -1474
c-3 -3 -12 -4 -19 -1 -8 3 -5 6 6 6 11 1 17 -2 13 -5z"/>
</g>
</svg>
